<svg xmlns="http://www.w3.org/2000/svg" xmlns:xlink="http://www.w3.org/1999/xlink" width="250" zoomAndPan="magnify" viewBox="0 0 187.5 112.499997" height="150" preserveAspectRatio="xMidYMid meet" version="1.0"><defs><g/><clipPath id="4c3f91c2be"><path d="M 34 65 L 127 65 L 127 94 L 34 94 Z M 34 65 " clip-rule="nonzero"/></clipPath><clipPath id="d4bfdbdb39"><path d="M 40.546875 52.601562 L 126.949219 65.507812 L 120.886719 106.121094 L 34.480469 93.21875 Z M 40.546875 52.601562 " clip-rule="nonzero"/></clipPath><clipPath id="febda7e754"><path d="M 40.546875 52.601562 L 126.949219 65.507812 L 120.886719 106.121094 L 34.480469 93.21875 Z M 40.546875 52.601562 " clip-rule="nonzero"/></clipPath><clipPath id="49a370c2cc"><path d="M 13.605469 9.050781 L 55.421875 9.050781 L 55.421875 46.386719 L 13.605469 46.386719 Z M 13.605469 9.050781 " clip-rule="nonzero"/></clipPath></defs><g clip-path="url(#4c3f91c2be)"><g clip-path="url(#d4bfdbdb39)"><g clip-path="url(#febda7e754)"><path fill="#e5c089" d="M 35.082031 90.820312 C 36.890625 88.527344 108.082031 60.953125 126.554688 65.871094 C 107.574219 67.308594 60.132812 83.679688 45.214844 91.742188 C 46.238281 91.800781 47.609375 91.730469 49.496094 91.453125 C 48.929688 92.421875 43.667969 93.1875 41.347656 93.273438 C 37.609375 93.515625 33.484375 92.847656 35.082031 90.828125 Z M 35.082031 90.820312 " fill-opacity="1" fill-rule="nonzero"/></g></g></g><g fill="#e5c089" fill-opacity="0.4"><g transform="translate(45.441496, 79.142427)"><g><path d="M 24.6875 -30.140625 C 24.125 -28.765625 23.269531 -27.332031 22.125 -25.84375 C 20.988281 -24.363281 19.726562 -22.929688 18.34375 -21.546875 C 16.96875 -20.171875 15.609375 -18.921875 14.265625 -17.796875 L 14.734375 -17.90625 C 16.898438 -18.425781 18.796875 -18.507812 20.421875 -18.15625 C 22.046875 -17.8125 23.242188 -17.054688 24.015625 -15.890625 C 24.785156 -14.722656 24.914062 -13.15625 24.40625 -11.1875 C 23.925781 -9.59375 23.046875 -7.976562 21.765625 -6.34375 C 20.492188 -4.707031 18.984375 -3.1875 17.234375 -1.78125 C 15.492188 -0.375 13.6875 0.835938 11.8125 1.859375 C 9.945312 2.890625 8.226562 3.59375 6.65625 3.96875 C 5.476562 4.25 4.441406 4.300781 3.546875 4.125 C 2.660156 3.957031 1.992188 3.535156 1.546875 2.859375 C 1.378906 2.597656 1.410156 2.4375 1.640625 2.375 C 1.878906 2.363281 2.144531 2.335938 2.4375 2.296875 C 2.726562 2.253906 3.03125 2.195312 3.34375 2.125 C 4.738281 1.789062 6.285156 1.15625 7.984375 0.21875 C 9.691406 -0.707031 11.40625 -1.828125 13.125 -3.140625 C 14.851562 -4.453125 16.414062 -5.8125 17.8125 -7.21875 C 19.21875 -8.625 20.3125 -9.96875 21.09375 -11.25 C 21.882812 -12.53125 22.191406 -13.632812 22.015625 -14.5625 C 21.835938 -15.5 21.007812 -16.09375 19.53125 -16.34375 C 18.882812 -16.476562 18.179688 -16.515625 17.421875 -16.453125 C 16.671875 -16.398438 15.894531 -16.273438 15.09375 -16.078125 C 14.019531 -15.828125 12.921875 -15.457031 11.796875 -14.96875 C 10.679688 -14.488281 9.628906 -13.941406 8.640625 -13.328125 C 8.023438 -11.335938 7.492188 -9.332031 7.046875 -7.3125 C 6.597656 -5.300781 6.28125 -3.300781 6.09375 -1.3125 C 4.894531 -1.164062 4.128906 -1.578125 3.796875 -2.546875 C 3.472656 -3.523438 3.421875 -4.796875 3.640625 -6.359375 C 3.867188 -7.929688 4.226562 -9.570312 4.71875 -11.28125 C 5.207031 -12.988281 5.691406 -14.523438 6.171875 -15.890625 C 6.648438 -17.265625 6.976562 -18.1875 7.15625 -18.65625 C 8.007812 -21.039062 8.894531 -23.316406 9.8125 -25.484375 C 10.738281 -27.660156 11.585938 -29.578125 12.359375 -31.234375 C 13.128906 -32.898438 13.6875 -34.101562 14.03125 -34.84375 C 15.15625 -34.5 15.894531 -34.175781 16.25 -33.875 C 16.613281 -33.582031 16.539062 -32.90625 16.03125 -31.84375 C 15.113281 -29.71875 14.171875 -27.550781 13.203125 -25.34375 C 12.234375 -23.144531 11.316406 -20.894531 10.453125 -18.59375 C 11.640625 -19.550781 12.929688 -20.726562 14.328125 -22.125 C 15.722656 -23.53125 17.0625 -25.023438 18.34375 -26.609375 C 19.625 -28.203125 20.671875 -29.738281 21.484375 -31.21875 C 22.296875 -32.695312 22.722656 -33.992188 22.765625 -35.109375 C 22.804688 -36.234375 22.296875 -37.023438 21.234375 -37.484375 C 20.359375 -37.953125 19.34375 -38.175781 18.1875 -38.15625 C 17.03125 -38.132812 15.734375 -37.953125 14.296875 -37.609375 C 12.140625 -37.097656 9.867188 -36.269531 7.484375 -35.125 C 5.097656 -33.976562 2.828125 -32.648438 0.671875 -31.140625 C -1.484375 -29.640625 -3.328125 -28.0625 -4.859375 -26.40625 C -6.390625 -24.75 -7.414062 -23.144531 -7.9375 -21.59375 C -8.46875 -20.039062 -8.269531 -18.695312 -7.34375 -17.5625 C -6.863281 -17.007812 -6.320312 -16.660156 -5.71875 -16.515625 C -5.125 -16.367188 -4.59375 -16.316406 -4.125 -16.359375 C -3.664062 -16.398438 -3.429688 -16.398438 -3.421875 -16.359375 C -3.316406 -16.328125 -3.375 -16.222656 -3.59375 -16.046875 C -3.8125 -15.878906 -4.125 -15.75 -4.53125 -15.65625 C -5.0625 -15.519531 -5.742188 -15.492188 -6.578125 -15.578125 C -7.410156 -15.671875 -8.191406 -16 -8.921875 -16.5625 C -9.648438 -17.125 -10.210938 -18.046875 -10.609375 -19.328125 C -10.921875 -20.628906 -10.851562 -21.984375 -10.40625 -23.390625 C -9.957031 -24.804688 -9.328125 -26.085938 -8.515625 -27.234375 C -6.828125 -29.546875 -4.863281 -31.570312 -2.625 -33.3125 C -0.382812 -35.0625 1.957031 -36.523438 4.40625 -37.703125 C 6.851562 -38.890625 9.242188 -39.757812 11.578125 -40.3125 C 13.910156 -40.875 16.101562 -41.085938 18.15625 -40.953125 C 20.207031 -40.828125 21.859375 -40.320312 23.109375 -39.4375 C 24.253906 -38.664062 25.019531 -37.457031 25.40625 -35.8125 C 25.800781 -34.175781 25.5625 -32.285156 24.6875 -30.140625 Z M 24.6875 -30.140625 "/></g></g></g><g fill="#e5c089" fill-opacity="0.4"><g transform="translate(73.130617, 72.517475)"><g><path d="M 6.078125 -34.4375 C 6.566406 -34.5625 7.078125 -34.503906 7.609375 -34.265625 C 8.148438 -34.023438 8.53125 -33.726562 8.75 -33.375 C 8.882812 -33.21875 8.921875 -33.03125 8.859375 -32.8125 C 8.796875 -32.601562 8.734375 -32.421875 8.671875 -32.265625 C 8.003906 -30.648438 7.367188 -29.019531 6.765625 -27.375 C 6.171875 -25.726562 5.546875 -24.066406 4.890625 -22.390625 C 4.785156 -22.078125 4.707031 -21.914062 4.65625 -21.90625 C 4.5625 -21.882812 4.425781 -22.066406 4.25 -22.453125 C 3.914062 -23.472656 3.78125 -24.675781 3.84375 -26.0625 C 3.914062 -27.457031 4.101562 -28.847656 4.40625 -30.234375 C 4.71875 -31.617188 5.070312 -32.78125 5.46875 -33.71875 C 5.6875 -34.15625 5.890625 -34.394531 6.078125 -34.4375 Z M 10.25 -16.984375 C 10.5625 -17.066406 10.847656 -16.878906 11.109375 -16.421875 C 10.898438 -15.890625 10.679688 -15.34375 10.453125 -14.78125 C 10.234375 -14.226562 10.046875 -13.679688 9.890625 -13.140625 C 9.628906 -12.492188 9.21875 -11.578125 8.65625 -10.390625 C 8.101562 -9.210938 7.46875 -7.992188 6.75 -6.734375 C 6.039062 -5.472656 5.296875 -4.367188 4.515625 -3.421875 C 3.742188 -2.484375 3.023438 -1.929688 2.359375 -1.765625 C 1.421875 -1.546875 0.507812 -1.84375 -0.375 -2.65625 C -1.269531 -3.46875 -1.628906 -4.507812 -1.453125 -5.78125 C -1.390625 -6.125 -1.269531 -6.828125 -1.09375 -7.890625 C -0.914062 -8.953125 -0.691406 -10.171875 -0.421875 -11.546875 C -0.160156 -12.921875 0.101562 -14.253906 0.375 -15.546875 C 0.644531 -16.835938 0.925781 -17.921875 1.21875 -18.796875 C 1.507812 -19.679688 1.769531 -20.148438 2 -20.203125 C 2.09375 -20.222656 2.222656 -20.226562 2.390625 -20.21875 C 2.554688 -20.21875 2.738281 -20.191406 2.9375 -20.140625 C 3.488281 -20.035156 4.0625 -19.84375 4.65625 -19.5625 C 5.25 -19.289062 5.445312 -18.765625 5.25 -17.984375 L 5.21875 -17.84375 C 4.695312 -16.4375 4.207031 -14.941406 3.75 -13.359375 C 3.300781 -11.773438 2.894531 -10.226562 2.53125 -8.71875 C 2.476562 -8.53125 2.375 -8.023438 2.21875 -7.203125 C 2.070312 -6.378906 1.976562 -5.582031 1.9375 -4.8125 C 1.90625 -4.050781 2.054688 -3.613281 2.390625 -3.5 C 2.429688 -3.445312 2.472656 -3.425781 2.515625 -3.4375 C 2.703125 -3.488281 2.988281 -3.703125 3.375 -4.078125 C 4.863281 -5.960938 6.128906 -8 7.171875 -10.1875 C 8.222656 -12.382812 9.21875 -14.59375 10.15625 -16.8125 C 10.175781 -16.914062 10.195312 -16.96875 10.21875 -16.96875 C 10.238281 -16.976562 10.25 -16.984375 10.25 -16.984375 Z M 10.25 -16.984375 "/></g></g></g><g fill="#e5c089" fill-opacity="0.4"><g transform="translate(81.956102, 70.405873)"><g><path d="M 8.734375 -32 C 8.316406 -31.332031 7.816406 -30.171875 7.234375 -28.515625 C 6.660156 -26.859375 6.070312 -24.898438 5.46875 -22.640625 C 4.875 -20.390625 4.300781 -17.972656 3.75 -15.390625 C 3.207031 -12.816406 2.722656 -10.28125 2.296875 -7.78125 C 1.867188 -5.28125 1.566406 -2.960938 1.390625 -0.828125 C 1.210938 1.296875 1.203125 3.054688 1.359375 4.453125 C 0.847656 4.523438 0.398438 4.367188 0.015625 3.984375 C -0.359375 3.597656 -0.65625 3.125 -0.875 2.5625 C -1.101562 2.007812 -1.265625 1.550781 -1.359375 1.1875 C -1.535156 -0.144531 -1.523438 -1.945312 -1.328125 -4.21875 C -1.128906 -6.5 -0.832031 -8.984375 -0.4375 -11.671875 C -0.0390625 -14.359375 0.410156 -17.019531 0.921875 -19.65625 C 1.429688 -22.289062 1.910156 -24.648438 2.359375 -26.734375 C 2.816406 -28.828125 3.1875 -30.359375 3.46875 -31.328125 C 3.707031 -31.910156 3.945312 -32.40625 4.1875 -32.8125 C 4.425781 -33.21875 4.859375 -33.5 5.484375 -33.65625 C 6.429688 -33.882812 7.269531 -33.765625 8 -33.296875 C 8.726562 -32.828125 8.972656 -32.394531 8.734375 -32 Z M 8.734375 -32 "/></g></g></g><g fill="#e5c089" fill-opacity="0.4"><g transform="translate(88.895231, 68.745604)"><g><path d="M 8.734375 -32 C 8.316406 -31.332031 7.816406 -30.171875 7.234375 -28.515625 C 6.660156 -26.859375 6.070312 -24.898438 5.46875 -22.640625 C 4.875 -20.390625 4.300781 -17.972656 3.75 -15.390625 C 3.207031 -12.816406 2.722656 -10.28125 2.296875 -7.78125 C 1.867188 -5.28125 1.566406 -2.960938 1.390625 -0.828125 C 1.210938 1.296875 1.203125 3.054688 1.359375 4.453125 C 0.847656 4.523438 0.398438 4.367188 0.015625 3.984375 C -0.359375 3.597656 -0.65625 3.125 -0.875 2.5625 C -1.101562 2.007812 -1.265625 1.550781 -1.359375 1.1875 C -1.535156 -0.144531 -1.523438 -1.945312 -1.328125 -4.21875 C -1.128906 -6.5 -0.832031 -8.984375 -0.4375 -11.671875 C -0.0390625 -14.359375 0.410156 -17.019531 0.921875 -19.65625 C 1.429688 -22.289062 1.910156 -24.648438 2.359375 -26.734375 C 2.816406 -28.828125 3.1875 -30.359375 3.46875 -31.328125 C 3.707031 -31.910156 3.945312 -32.40625 4.1875 -32.8125 C 4.425781 -33.21875 4.859375 -33.5 5.484375 -33.65625 C 6.429688 -33.882812 7.269531 -33.765625 8 -33.296875 C 8.726562 -32.828125 8.972656 -32.394531 8.734375 -32 Z M 8.734375 -32 "/></g></g></g><g fill="#e5c089" fill-opacity="0.4"><g transform="translate(95.834361, 67.085334)"><g><path d="M 1.03125 13.515625 C -0.644531 13.910156 -2.015625 13.601562 -3.078125 12.59375 C -4.148438 11.59375 -4.953125 10.367188 -5.484375 8.921875 C -5.578125 8.753906 -5.648438 8.546875 -5.703125 8.296875 C -5.765625 8.054688 -5.671875 7.957031 -5.421875 8 C -5.097656 7.957031 -4.835938 8.175781 -4.640625 8.65625 C -4.265625 9.570312 -3.78125 10.328125 -3.1875 10.921875 C -2.59375 11.515625 -1.734375 11.675781 -0.609375 11.40625 C 0.773438 11.082031 1.96875 10.132812 2.96875 8.5625 C 3.96875 6.988281 4.816406 5.070312 5.515625 2.8125 C 6.210938 0.550781 6.773438 -1.789062 7.203125 -4.21875 C 7.640625 -6.644531 8 -8.867188 8.28125 -10.890625 C 8.082031 -10.316406 7.8125 -9.460938 7.46875 -8.328125 C 7.125 -7.203125 6.710938 -6.035156 6.234375 -4.828125 C 5.765625 -3.628906 5.25 -2.570312 4.6875 -1.65625 C 4.125 -0.738281 3.5 -0.222656 2.8125 -0.109375 C 1.820312 0.078125 1.023438 -0.132812 0.421875 -0.75 C -0.171875 -1.363281 -0.585938 -2.070312 -0.828125 -2.875 C -1.273438 -4.332031 -1.421875 -6.085938 -1.265625 -8.140625 C -1.117188 -10.191406 -0.773438 -12.234375 -0.234375 -14.265625 C 0.296875 -16.296875 0.878906 -17.976562 1.515625 -19.3125 C 1.585938 -19.570312 1.6875 -19.785156 1.8125 -19.953125 C 1.9375 -20.117188 2.113281 -20.226562 2.34375 -20.28125 C 2.832031 -20.40625 3.328125 -20.414062 3.828125 -20.3125 C 4.328125 -20.21875 4.722656 -19.953125 5.015625 -19.515625 C 5.390625 -19.179688 5.421875 -18.757812 5.109375 -18.25 C 4.585938 -17.269531 4.125 -16.078125 3.71875 -14.671875 C 3.320312 -13.273438 3 -12 2.75 -10.84375 C 2.707031 -10.632812 2.59375 -10.0625 2.40625 -9.125 C 2.226562 -8.1875 2.070312 -7.140625 1.9375 -5.984375 C 1.8125 -4.828125 1.785156 -3.84375 1.859375 -3.03125 C 1.941406 -2.226562 2.1875 -1.875 2.59375 -1.96875 C 3 -2.070312 3.488281 -2.65625 4.0625 -3.71875 C 4.632812 -4.78125 5.222656 -6.117188 5.828125 -7.734375 C 6.441406 -9.347656 7.03125 -11.015625 7.59375 -12.734375 C 8.15625 -14.460938 8.644531 -16.039062 9.0625 -17.46875 C 9.476562 -18.894531 9.773438 -19.972656 9.953125 -20.703125 C 9.972656 -20.984375 10.097656 -21.1875 10.328125 -21.3125 C 10.554688 -21.4375 10.804688 -21.53125 11.078125 -21.59375 C 11.617188 -21.726562 12.210938 -21.726562 12.859375 -21.59375 C 13.503906 -21.457031 13.78125 -21 13.6875 -20.21875 C 13.519531 -19.519531 13.375 -18.789062 13.25 -18.03125 C 13.125 -17.269531 12.984375 -16.503906 12.828125 -15.734375 C 12.597656 -14.492188 12.332031 -12.863281 12.03125 -10.84375 C 11.738281 -8.832031 11.363281 -6.644531 10.90625 -4.28125 C 10.445312 -1.925781 9.878906 0.398438 9.203125 2.703125 C 8.523438 5.003906 7.671875 7.035156 6.640625 8.796875 C 5.609375 10.566406 4.382812 11.863281 2.96875 12.6875 C 2.664062 12.800781 2.34375 12.945312 2 13.125 C 1.664062 13.3125 1.34375 13.441406 1.03125 13.515625 Z M 1.03125 13.515625 "/></g></g></g><g fill="#e5c089" fill-opacity="1"><g transform="translate(41.750851, 76.876873)"><g><path d="M 24.6875 -30.140625 C 24.125 -28.765625 23.269531 -27.332031 22.125 -25.84375 C 20.988281 -24.363281 19.726562 -22.929688 18.34375 -21.546875 C 16.96875 -20.171875 15.609375 -18.921875 14.265625 -17.796875 L 14.734375 -17.90625 C 16.898438 -18.425781 18.796875 -18.507812 20.421875 -18.15625 C 22.046875 -17.8125 23.242188 -17.054688 24.015625 -15.890625 C 24.785156 -14.722656 24.914062 -13.15625 24.40625 -11.1875 C 23.925781 -9.59375 23.046875 -7.976562 21.765625 -6.34375 C 20.492188 -4.707031 18.984375 -3.1875 17.234375 -1.78125 C 15.492188 -0.375 13.6875 0.835938 11.8125 1.859375 C 9.945312 2.890625 8.226562 3.59375 6.65625 3.96875 C 5.476562 4.25 4.441406 4.300781 3.546875 4.125 C 2.660156 3.957031 1.992188 3.535156 1.546875 2.859375 C 1.378906 2.597656 1.410156 2.4375 1.640625 2.375 C 1.878906 2.363281 2.144531 2.335938 2.4375 2.296875 C 2.726562 2.253906 3.03125 2.195312 3.34375 2.125 C 4.738281 1.789062 6.285156 1.15625 7.984375 0.21875 C 9.691406 -0.707031 11.40625 -1.828125 13.125 -3.140625 C 14.851562 -4.453125 16.414062 -5.8125 17.8125 -7.21875 C 19.21875 -8.625 20.3125 -9.96875 21.09375 -11.25 C 21.882812 -12.53125 22.191406 -13.632812 22.015625 -14.5625 C 21.835938 -15.5 21.007812 -16.09375 19.53125 -16.34375 C 18.882812 -16.476562 18.179688 -16.515625 17.421875 -16.453125 C 16.671875 -16.398438 15.894531 -16.273438 15.09375 -16.078125 C 14.019531 -15.828125 12.921875 -15.457031 11.796875 -14.96875 C 10.679688 -14.488281 9.628906 -13.941406 8.640625 -13.328125 C 8.023438 -11.335938 7.492188 -9.332031 7.046875 -7.3125 C 6.597656 -5.300781 6.28125 -3.300781 6.09375 -1.3125 C 4.894531 -1.164062 4.128906 -1.578125 3.796875 -2.546875 C 3.472656 -3.523438 3.421875 -4.796875 3.640625 -6.359375 C 3.867188 -7.929688 4.226562 -9.570312 4.71875 -11.28125 C 5.207031 -12.988281 5.691406 -14.523438 6.171875 -15.890625 C 6.648438 -17.265625 6.976562 -18.1875 7.15625 -18.65625 C 8.007812 -21.039062 8.894531 -23.316406 9.8125 -25.484375 C 10.738281 -27.660156 11.585938 -29.578125 12.359375 -31.234375 C 13.128906 -32.898438 13.6875 -34.101562 14.03125 -34.84375 C 15.15625 -34.5 15.894531 -34.175781 16.25 -33.875 C 16.613281 -33.582031 16.539062 -32.90625 16.03125 -31.84375 C 15.113281 -29.71875 14.171875 -27.550781 13.203125 -25.34375 C 12.234375 -23.144531 11.316406 -20.894531 10.453125 -18.59375 C 11.640625 -19.550781 12.929688 -20.726562 14.328125 -22.125 C 15.722656 -23.53125 17.0625 -25.023438 18.34375 -26.609375 C 19.625 -28.203125 20.671875 -29.738281 21.484375 -31.21875 C 22.296875 -32.695312 22.722656 -33.992188 22.765625 -35.109375 C 22.804688 -36.234375 22.296875 -37.023438 21.234375 -37.484375 C 20.359375 -37.953125 19.34375 -38.175781 18.1875 -38.15625 C 17.03125 -38.132812 15.734375 -37.953125 14.296875 -37.609375 C 12.140625 -37.097656 9.867188 -36.269531 7.484375 -35.125 C 5.097656 -33.976562 2.828125 -32.648438 0.671875 -31.140625 C -1.484375 -29.640625 -3.328125 -28.0625 -4.859375 -26.40625 C -6.390625 -24.75 -7.414062 -23.144531 -7.9375 -21.59375 C -8.46875 -20.039062 -8.269531 -18.695312 -7.34375 -17.5625 C -6.863281 -17.007812 -6.320312 -16.660156 -5.71875 -16.515625 C -5.125 -16.367188 -4.59375 -16.316406 -4.125 -16.359375 C -3.664062 -16.398438 -3.429688 -16.398438 -3.421875 -16.359375 C -3.316406 -16.328125 -3.375 -16.222656 -3.59375 -16.046875 C -3.8125 -15.878906 -4.125 -15.75 -4.53125 -15.65625 C -5.0625 -15.519531 -5.742188 -15.492188 -6.578125 -15.578125 C -7.410156 -15.671875 -8.191406 -16 -8.921875 -16.5625 C -9.648438 -17.125 -10.210938 -18.046875 -10.609375 -19.328125 C -10.921875 -20.628906 -10.851562 -21.984375 -10.40625 -23.390625 C -9.957031 -24.804688 -9.328125 -26.085938 -8.515625 -27.234375 C -6.828125 -29.546875 -4.863281 -31.570312 -2.625 -33.3125 C -0.382812 -35.0625 1.957031 -36.523438 4.40625 -37.703125 C 6.851562 -38.890625 9.242188 -39.757812 11.578125 -40.3125 C 13.910156 -40.875 16.101562 -41.085938 18.15625 -40.953125 C 20.207031 -40.828125 21.859375 -40.320312 23.109375 -39.4375 C 24.253906 -38.664062 25.019531 -37.457031 25.40625 -35.8125 C 25.800781 -34.175781 25.5625 -32.285156 24.6875 -30.140625 Z M 24.6875 -30.140625 "/></g></g></g><g fill="#e5c089" fill-opacity="1"><g transform="translate(69.439973, 70.251921)"><g><path d="M 6.078125 -34.4375 C 6.566406 -34.5625 7.078125 -34.503906 7.609375 -34.265625 C 8.148438 -34.023438 8.53125 -33.726562 8.75 -33.375 C 8.882812 -33.21875 8.921875 -33.03125 8.859375 -32.8125 C 8.796875 -32.601562 8.734375 -32.421875 8.671875 -32.265625 C 8.003906 -30.648438 7.367188 -29.019531 6.765625 -27.375 C 6.171875 -25.726562 5.546875 -24.066406 4.890625 -22.390625 C 4.785156 -22.078125 4.707031 -21.914062 4.65625 -21.90625 C 4.5625 -21.882812 4.425781 -22.066406 4.25 -22.453125 C 3.914062 -23.472656 3.78125 -24.675781 3.84375 -26.0625 C 3.914062 -27.457031 4.101562 -28.847656 4.40625 -30.234375 C 4.71875 -31.617188 5.070312 -32.78125 5.46875 -33.71875 C 5.6875 -34.15625 5.890625 -34.394531 6.078125 -34.4375 Z M 10.25 -16.984375 C 10.5625 -17.066406 10.847656 -16.878906 11.109375 -16.421875 C 10.898438 -15.890625 10.679688 -15.34375 10.453125 -14.78125 C 10.234375 -14.226562 10.046875 -13.679688 9.890625 -13.140625 C 9.628906 -12.492188 9.21875 -11.578125 8.65625 -10.390625 C 8.101562 -9.210938 7.46875 -7.992188 6.75 -6.734375 C 6.039062 -5.472656 5.296875 -4.367188 4.515625 -3.421875 C 3.742188 -2.484375 3.023438 -1.929688 2.359375 -1.765625 C 1.421875 -1.546875 0.507812 -1.84375 -0.375 -2.65625 C -1.269531 -3.46875 -1.628906 -4.507812 -1.453125 -5.78125 C -1.390625 -6.125 -1.269531 -6.828125 -1.09375 -7.890625 C -0.914062 -8.953125 -0.691406 -10.171875 -0.421875 -11.546875 C -0.160156 -12.921875 0.101562 -14.253906 0.375 -15.546875 C 0.644531 -16.835938 0.925781 -17.921875 1.21875 -18.796875 C 1.507812 -19.679688 1.769531 -20.148438 2 -20.203125 C 2.09375 -20.222656 2.222656 -20.226562 2.390625 -20.21875 C 2.554688 -20.21875 2.738281 -20.191406 2.9375 -20.140625 C 3.488281 -20.035156 4.0625 -19.84375 4.65625 -19.5625 C 5.25 -19.289062 5.445312 -18.765625 5.25 -17.984375 L 5.21875 -17.84375 C 4.695312 -16.4375 4.207031 -14.941406 3.75 -13.359375 C 3.300781 -11.773438 2.894531 -10.226562 2.53125 -8.71875 C 2.476562 -8.53125 2.375 -8.023438 2.21875 -7.203125 C 2.070312 -6.378906 1.976562 -5.582031 1.9375 -4.8125 C 1.90625 -4.050781 2.054688 -3.613281 2.390625 -3.5 C 2.429688 -3.445312 2.472656 -3.425781 2.515625 -3.4375 C 2.703125 -3.488281 2.988281 -3.703125 3.375 -4.078125 C 4.863281 -5.960938 6.128906 -8 7.171875 -10.1875 C 8.222656 -12.382812 9.21875 -14.59375 10.15625 -16.8125 C 10.175781 -16.914062 10.195312 -16.96875 10.21875 -16.96875 C 10.238281 -16.976562 10.25 -16.984375 10.25 -16.984375 Z M 10.25 -16.984375 "/></g></g></g><g fill="#e5c089" fill-opacity="1"><g transform="translate(78.265458, 68.140318)"><g><path d="M 8.734375 -32 C 8.316406 -31.332031 7.816406 -30.171875 7.234375 -28.515625 C 6.660156 -26.859375 6.070312 -24.898438 5.46875 -22.640625 C 4.875 -20.390625 4.300781 -17.972656 3.75 -15.390625 C 3.207031 -12.816406 2.722656 -10.28125 2.296875 -7.78125 C 1.867188 -5.28125 1.566406 -2.960938 1.390625 -0.828125 C 1.210938 1.296875 1.203125 3.054688 1.359375 4.453125 C 0.847656 4.523438 0.398438 4.367188 0.015625 3.984375 C -0.359375 3.597656 -0.65625 3.125 -0.875 2.5625 C -1.101562 2.007812 -1.265625 1.550781 -1.359375 1.1875 C -1.535156 -0.144531 -1.523438 -1.945312 -1.328125 -4.21875 C -1.128906 -6.5 -0.832031 -8.984375 -0.4375 -11.671875 C -0.0390625 -14.359375 0.410156 -17.019531 0.921875 -19.65625 C 1.429688 -22.289062 1.910156 -24.648438 2.359375 -26.734375 C 2.816406 -28.828125 3.1875 -30.359375 3.46875 -31.328125 C 3.707031 -31.910156 3.945312 -32.40625 4.1875 -32.8125 C 4.425781 -33.21875 4.859375 -33.5 5.484375 -33.65625 C 6.429688 -33.882812 7.269531 -33.765625 8 -33.296875 C 8.726562 -32.828125 8.972656 -32.394531 8.734375 -32 Z M 8.734375 -32 "/></g></g></g><g fill="#e5c089" fill-opacity="1"><g transform="translate(85.204587, 66.480049)"><g><path d="M 8.734375 -32 C 8.316406 -31.332031 7.816406 -30.171875 7.234375 -28.515625 C 6.660156 -26.859375 6.070312 -24.898438 5.46875 -22.640625 C 4.875 -20.390625 4.300781 -17.972656 3.75 -15.390625 C 3.207031 -12.816406 2.722656 -10.28125 2.296875 -7.78125 C 1.867188 -5.28125 1.566406 -2.960938 1.390625 -0.828125 C 1.210938 1.296875 1.203125 3.054688 1.359375 4.453125 C 0.847656 4.523438 0.398438 4.367188 0.015625 3.984375 C -0.359375 3.597656 -0.65625 3.125 -0.875 2.5625 C -1.101562 2.007812 -1.265625 1.550781 -1.359375 1.1875 C -1.535156 -0.144531 -1.523438 -1.945312 -1.328125 -4.21875 C -1.128906 -6.5 -0.832031 -8.984375 -0.4375 -11.671875 C -0.0390625 -14.359375 0.410156 -17.019531 0.921875 -19.65625 C 1.429688 -22.289062 1.910156 -24.648438 2.359375 -26.734375 C 2.816406 -28.828125 3.1875 -30.359375 3.46875 -31.328125 C 3.707031 -31.910156 3.945312 -32.40625 4.1875 -32.8125 C 4.425781 -33.21875 4.859375 -33.5 5.484375 -33.65625 C 6.429688 -33.882812 7.269531 -33.765625 8 -33.296875 C 8.726562 -32.828125 8.972656 -32.394531 8.734375 -32 Z M 8.734375 -32 "/></g></g></g><g fill="#e5c089" fill-opacity="1"><g transform="translate(92.143716, 64.81978)"><g><path d="M 1.03125 13.515625 C -0.644531 13.910156 -2.015625 13.601562 -3.078125 12.59375 C -4.148438 11.59375 -4.953125 10.367188 -5.484375 8.921875 C -5.578125 8.753906 -5.648438 8.546875 -5.703125 8.296875 C -5.765625 8.054688 -5.671875 7.957031 -5.421875 8 C -5.097656 7.957031 -4.835938 8.175781 -4.640625 8.65625 C -4.265625 9.570312 -3.78125 10.328125 -3.1875 10.921875 C -2.59375 11.515625 -1.734375 11.675781 -0.609375 11.40625 C 0.773438 11.082031 1.96875 10.132812 2.96875 8.5625 C 3.96875 6.988281 4.816406 5.070312 5.515625 2.8125 C 6.210938 0.550781 6.773438 -1.789062 7.203125 -4.21875 C 7.640625 -6.644531 8 -8.867188 8.28125 -10.890625 C 8.082031 -10.316406 7.8125 -9.460938 7.46875 -8.328125 C 7.125 -7.203125 6.710938 -6.035156 6.234375 -4.828125 C 5.765625 -3.628906 5.25 -2.570312 4.6875 -1.65625 C 4.125 -0.738281 3.5 -0.222656 2.8125 -0.109375 C 1.820312 0.078125 1.023438 -0.132812 0.421875 -0.75 C -0.171875 -1.363281 -0.585938 -2.070312 -0.828125 -2.875 C -1.273438 -4.332031 -1.421875 -6.085938 -1.265625 -8.140625 C -1.117188 -10.191406 -0.773438 -12.234375 -0.234375 -14.265625 C 0.296875 -16.296875 0.878906 -17.976562 1.515625 -19.3125 C 1.585938 -19.570312 1.6875 -19.785156 1.8125 -19.953125 C 1.9375 -20.117188 2.113281 -20.226562 2.34375 -20.28125 C 2.832031 -20.40625 3.328125 -20.414062 3.828125 -20.3125 C 4.328125 -20.21875 4.722656 -19.953125 5.015625 -19.515625 C 5.390625 -19.179688 5.421875 -18.757812 5.109375 -18.25 C 4.585938 -17.269531 4.125 -16.078125 3.71875 -14.671875 C 3.320312 -13.273438 3 -12 2.75 -10.84375 C 2.707031 -10.632812 2.59375 -10.0625 2.40625 -9.125 C 2.226562 -8.1875 2.070312 -7.140625 1.9375 -5.984375 C 1.8125 -4.828125 1.785156 -3.84375 1.859375 -3.03125 C 1.941406 -2.226562 2.1875 -1.875 2.59375 -1.96875 C 3 -2.070312 3.488281 -2.65625 4.0625 -3.71875 C 4.632812 -4.78125 5.222656 -6.117188 5.828125 -7.734375 C 6.441406 -9.347656 7.03125 -11.015625 7.59375 -12.734375 C 8.15625 -14.460938 8.644531 -16.039062 9.0625 -17.46875 C 9.476562 -18.894531 9.773438 -19.972656 9.953125 -20.703125 C 9.972656 -20.984375 10.097656 -21.1875 10.328125 -21.3125 C 10.554688 -21.4375 10.804688 -21.53125 11.078125 -21.59375 C 11.617188 -21.726562 12.210938 -21.726562 12.859375 -21.59375 C 13.503906 -21.457031 13.78125 -21 13.6875 -20.21875 C 13.519531 -19.519531 13.375 -18.789062 13.25 -18.03125 C 13.125 -17.269531 12.984375 -16.503906 12.828125 -15.734375 C 12.597656 -14.492188 12.332031 -12.863281 12.03125 -10.84375 C 11.738281 -8.832031 11.363281 -6.644531 10.90625 -4.28125 C 10.445312 -1.925781 9.878906 0.398438 9.203125 2.703125 C 8.523438 5.003906 7.671875 7.035156 6.640625 8.796875 C 5.609375 10.566406 4.382812 11.863281 2.96875 12.6875 C 2.664062 12.800781 2.34375 12.945312 2 13.125 C 1.664062 13.3125 1.34375 13.441406 1.03125 13.515625 Z M 1.03125 13.515625 "/></g></g></g><g clip-path="url(#49a370c2cc)"><path fill="#ffffff" d="M 20.277344 38.851562 L 26.042969 46.410156 C 26.042969 46.410156 31.296875 34.808594 43.84375 30.816406 C 43.84375 30.816406 32.632812 33.085938 25.726562 41.96875 L 23.289062 38.789062 L 22.398438 37.652344 L 23.296875 36.230469 C 21.117188 36.105469 18.925781 36.183594 17.277344 33.898438 C 15.625 31.609375 17.832031 25.402344 22.496094 23.886719 C 22.699219 23.816406 22.910156 23.761719 23.113281 23.707031 C 22.867188 25.757812 22.582031 28.433594 22.476562 28.707031 C 24.648438 23.433594 33.957031 4.125 40.25 17.96875 C 40.25 17.96875 40.367188 17.464844 40.460938 16.699219 C 46.660156 12.691406 48.277344 17.40625 48.355469 21.5 C 37.335938 20.460938 29.566406 31.664062 28.5 33.296875 L 28.488281 33.304688 L 28.464844 33.34375 C 28.402344 33.4375 28.367188 33.492188 28.367188 33.492188 L 29.027344 32.855469 C 36.25 26.023438 43.457031 24.804688 46.554688 24.609375 L 50.246094 29.800781 C 50.246094 29.800781 34.933594 33.394531 29.195312 46.320312 C 29.195312 46.320312 39.5625 33.890625 55.226562 32.148438 L 50.246094 23.921875 C 52.894531 12.644531 45.285156 10.660156 40.878906 12.785156 C 40.683594 12.875 40.515625 12.929688 40.382812 12.964844 C 39.976562 10.933594 38.777344 9.0625 35.757812 9.050781 C 35.261719 9.050781 34.722656 9.097656 34.125 9.203125 C 26.882812 10.492188 24.605469 17.597656 23.441406 21.394531 C 23.429688 21.421875 23.421875 21.464844 23.414062 21.511719 C 23.078125 21.554688 22.8125 21.597656 22.671875 21.617188 C 21.921875 21.714844 21.179688 21.882812 20.4375 22.121094 C 14.796875 23.957031 12.800781 30.480469 14.132812 34.234375 C 15.296875 37.527344 17.453125 38.242188 20.261719 38.84375 Z M 20.277344 38.851562 " fill-opacity="1" fill-rule="evenodd"/></g><g fill="#ffffff" fill-opacity="1"><g transform="translate(84.38817, 29.249895)"><g><path d="M 3.9375 -4.296875 C 4.289062 -4.285156 4.59375 -4.179688 4.84375 -3.984375 C 5.09375 -3.796875 5.265625 -3.519531 5.359375 -3.15625 C 5.503906 -2.664062 5.421875 -2.234375 5.109375 -1.859375 C 4.804688 -1.492188 4.296875 -1.207031 3.578125 -1 L 0.765625 -0.21875 L -0.828125 -5.890625 L 1.828125 -6.625 C 2.492188 -6.820312 3.039062 -6.835938 3.46875 -6.671875 C 3.90625 -6.503906 4.1875 -6.195312 4.3125 -5.75 C 4.394531 -5.46875 4.398438 -5.195312 4.328125 -4.9375 C 4.265625 -4.6875 4.132812 -4.472656 3.9375 -4.296875 Z M 0.453125 -5.359375 L 0.890625 -3.796875 L 2.390625 -4.21875 C 2.742188 -4.3125 3 -4.453125 3.15625 -4.640625 C 3.320312 -4.828125 3.367188 -5.050781 3.296875 -5.3125 C 3.222656 -5.5625 3.066406 -5.722656 2.828125 -5.796875 C 2.597656 -5.878906 2.304688 -5.875 1.953125 -5.78125 Z M 3.265625 -1.8125 C 4.085938 -2.039062 4.421875 -2.425781 4.265625 -2.96875 C 4.117188 -3.519531 3.632812 -3.679688 2.8125 -3.453125 L 1.125 -2.984375 L 1.578125 -1.34375 Z M 3.265625 -1.8125 "/></g></g></g><g fill="#ffffff" fill-opacity="1"><g transform="translate(93.367829, 27.493967)"><g><path d="M 1.078125 -5.859375 L 2.171875 -5.796875 L 1.890625 0.09375 L 0.796875 0.03125 Z M 1.078125 -5.859375 "/></g></g></g><g fill="#ffffff" fill-opacity="1"><g transform="translate(98.870707, 27.992478)"><g><path d="M 2.421875 0.96875 C 2.003906 0.8125 1.613281 0.601562 1.25 0.34375 C 0.894531 0.0820312 0.644531 -0.195312 0.5 -0.5 L 1.125 -1.140625 C 1.289062 -0.878906 1.515625 -0.632812 1.796875 -0.40625 C 2.085938 -0.1875 2.398438 -0.015625 2.734375 0.109375 C 3.140625 0.253906 3.46875 0.300781 3.71875 0.25 C 3.976562 0.195312 4.148438 0.0625 4.234375 -0.15625 C 4.285156 -0.3125 4.269531 -0.460938 4.1875 -0.609375 C 4.113281 -0.753906 4 -0.890625 3.84375 -1.015625 C 3.6875 -1.140625 3.472656 -1.289062 3.203125 -1.46875 C 2.816406 -1.71875 2.507812 -1.941406 2.28125 -2.140625 C 2.0625 -2.335938 1.894531 -2.570312 1.78125 -2.84375 C 1.675781 -3.125 1.691406 -3.453125 1.828125 -3.828125 C 1.941406 -4.128906 2.125 -4.375 2.375 -4.5625 C 2.632812 -4.75 2.957031 -4.851562 3.34375 -4.875 C 3.726562 -4.90625 4.164062 -4.832031 4.65625 -4.65625 C 4.988281 -4.53125 5.300781 -4.367188 5.59375 -4.171875 C 5.894531 -3.972656 6.140625 -3.75 6.328125 -3.5 L 5.703125 -2.8125 C 5.515625 -3.039062 5.300781 -3.242188 5.0625 -3.421875 C 4.820312 -3.597656 4.578125 -3.726562 4.328125 -3.8125 C 3.929688 -3.957031 3.609375 -3.992188 3.359375 -3.921875 C 3.109375 -3.859375 2.941406 -3.71875 2.859375 -3.5 C 2.804688 -3.34375 2.816406 -3.191406 2.890625 -3.046875 C 2.960938 -2.898438 3.078125 -2.765625 3.234375 -2.640625 C 3.390625 -2.523438 3.609375 -2.378906 3.890625 -2.203125 C 4.265625 -1.953125 4.5625 -1.726562 4.78125 -1.53125 C 5 -1.332031 5.164062 -1.09375 5.28125 -0.8125 C 5.40625 -0.53125 5.398438 -0.21875 5.265625 0.125 C 5.160156 0.4375 4.976562 0.6875 4.71875 0.875 C 4.46875 1.0625 4.144531 1.164062 3.75 1.1875 C 3.351562 1.21875 2.910156 1.144531 2.421875 0.96875 Z M 2.421875 0.96875 "/></g></g></g><g fill="#ffffff" fill-opacity="1"><g transform="translate(106.229888, 31.191129)"><g><path d="M 4.6875 -2.53125 L 3.203125 -3.78125 L 3.8125 -4.5 L 7.640625 -1.28125 L 7.03125 -0.5625 L 5.53125 -1.828125 L 2.359375 1.96875 L 1.515625 1.265625 Z M 4.6875 -2.53125 "/></g></g></g><g fill="#ffffff" fill-opacity="1"><g transform="translate(111.93804, 36.483879)"><g><path d="M 2.265625 4.046875 L 3.171875 2.15625 C 3.148438 2.113281 3.113281 2.050781 3.0625 1.96875 L 2.421875 0.8125 L 0.921875 1.65625 L 0.390625 0.703125 L 5.53125 -2.171875 L 6.703125 -0.0625 C 6.953125 0.375 7.09375 0.800781 7.125 1.21875 C 7.15625 1.632812 7.082031 2.007812 6.90625 2.34375 C 6.738281 2.675781 6.46875 2.945312 6.09375 3.15625 C 5.707031 3.375 5.320312 3.460938 4.9375 3.421875 C 4.550781 3.378906 4.191406 3.226562 3.859375 2.96875 L 2.828125 5.078125 Z M 5.5625 2.1875 C 5.894531 2 6.085938 1.75 6.140625 1.4375 C 6.191406 1.132812 6.097656 0.769531 5.859375 0.34375 L 5.25 -0.75 L 3.203125 0.390625 L 3.8125 1.484375 C 4.050781 1.910156 4.320312 2.175781 4.625 2.28125 C 4.925781 2.394531 5.238281 2.363281 5.5625 2.1875 Z M 5.5625 2.1875 "/></g></g></g><g fill="#ffffff" fill-opacity="1"><g transform="translate(115.831242, 44.383091)"><g><path d="M 0.28125 3.53125 C 0.21875 2.9375 0.289062 2.382812 0.5 1.875 C 0.71875 1.363281 1.035156 0.945312 1.453125 0.625 C 1.878906 0.3125 2.378906 0.128906 2.953125 0.078125 C 3.523438 0.015625 4.054688 0.09375 4.546875 0.3125 C 5.035156 0.539062 5.429688 0.878906 5.734375 1.328125 C 6.046875 1.785156 6.234375 2.3125 6.296875 2.90625 C 6.359375 3.507812 6.285156 4.0625 6.078125 4.5625 C 5.867188 5.070312 5.550781 5.484375 5.125 5.796875 C 4.695312 6.117188 4.191406 6.3125 3.609375 6.375 C 3.035156 6.425781 2.507812 6.335938 2.03125 6.109375 C 1.550781 5.890625 1.15625 5.554688 0.84375 5.109375 C 0.53125 4.660156 0.34375 4.132812 0.28125 3.53125 Z M 1.234375 3.421875 C 1.273438 3.816406 1.398438 4.160156 1.609375 4.453125 C 1.816406 4.742188 2.085938 4.960938 2.421875 5.109375 C 2.753906 5.265625 3.113281 5.320312 3.5 5.28125 C 3.894531 5.238281 4.238281 5.109375 4.53125 4.890625 C 4.820312 4.679688 5.039062 4.410156 5.1875 4.078125 C 5.332031 3.753906 5.382812 3.394531 5.34375 3 C 5.300781 2.613281 5.175781 2.273438 4.96875 1.984375 C 4.757812 1.691406 4.488281 1.472656 4.15625 1.328125 C 3.832031 1.179688 3.472656 1.128906 3.078125 1.171875 C 2.691406 1.210938 2.347656 1.335938 2.046875 1.546875 C 1.753906 1.753906 1.535156 2.019531 1.390625 2.34375 C 1.242188 2.675781 1.191406 3.035156 1.234375 3.421875 Z M 1.234375 3.421875 "/></g></g></g></svg>